<svg width="77" height="76" viewBox="0 0 77 76" fill="none" xmlns="http://www.w3.org/2000/svg">
<circle cx="38.4703" cy="37.7131" r="37.2131" fill="url(#paint0_linear_148_779)" stroke="#BAD1FF"/>
<path d="M31.6184 36.4952C33.3923 39.9695 36.2503 42.8054 39.7365 44.5855L42.4466 41.8847C42.7792 41.5532 43.272 41.4427 43.7031 41.59C45.0828 42.0443 46.5734 42.2898 48.1009 42.2898C48.7785 42.2898 49.3328 42.8423 49.3328 43.5175V47.802C49.3328 48.4773 48.7785 49.0297 48.1009 49.0297C36.5336 49.0297 27.159 39.6871 27.159 28.1593C27.159 27.4841 27.7134 26.9316 28.3909 26.9316H32.7025C33.38 26.9316 33.9344 27.4841 33.9344 28.1593C33.9344 29.6939 34.1807 31.1671 34.6365 32.5421C34.772 32.9718 34.6735 33.4506 34.3286 33.7943L31.6184 36.4952Z" fill="white"/>
<defs>
<linearGradient id="paint0_linear_148_779" x1="38.4703" y1="0" x2="38.4703" y2="75.4263" gradientUnits="userSpaceOnUse">
<stop stop-color="#CFD3FF"/>
<stop offset="1" stop-color="#A7AEFF"/>
</linearGradient>
</defs>
</svg>
