<svg width="77" height="76" viewBox="0 0 77 76" fill="none" xmlns="http://www.w3.org/2000/svg">
<circle cx="38.328" cy="38.1188" r="37.2131" fill="url(#paint0_linear_245_762)" stroke="#2F75FD"/>
<path d="M30.7963 32.1106L32.8292 34.1892C34.1228 32.8665 35.9283 32.0379 37.9043 32.0379C39.8803 32.0379 41.6857 32.8665 42.9793 34.1892L45.0122 32.1106C43.1926 30.2501 40.6764 29.1018 37.9043 29.1018C35.1322 29.1018 32.616 30.2501 30.7963 32.1106ZM37.9043 23.2877C33.6111 23.2877 29.7159 25.0756 26.8869 27.9535L28.8914 30.003C31.1944 27.6483 34.3929 26.1948 37.9043 26.1948C41.4156 26.1948 44.6142 27.6483 46.9172 30.003L48.9216 27.9535C45.9993 24.9664 42.0364 23.2881 37.9043 23.2877ZM41.97 36.384L33.8385 36.3695C32.9429 36.3695 32.2179 37.1108 32.2179 38.0265V52.1402C32.2179 53.0559 32.9429 53.7972 33.8385 53.7972H41.9558C42.8514 53.7972 43.5764 53.0559 43.5764 52.1402V38.0265C43.5906 37.1108 42.8656 36.384 41.97 36.384ZM42.169 50.9047H33.6395V39.2765H42.169V50.9047Z" fill="white"/>
<defs>
<linearGradient id="paint0_linear_245_762" x1="38.328" y1="0.40564" x2="38.328" y2="75.8319" gradientUnits="userSpaceOnUse">
<stop stop-color="#2F75FD"/>
<stop offset="1" stop-color="#185DE1"/>
</linearGradient>
</defs>
</svg>
