<svg width="77" height="76" viewBox="0 0 77 76" fill="none" xmlns="http://www.w3.org/2000/svg">
<circle cx="38.6126" cy="37.7131" r="37.2131" fill="url(#paint0_linear_148_776)" stroke="#FFBF88"/>
<path d="M31.0809 31.8229L33.1138 33.9014C34.4075 32.5787 36.2129 31.7502 38.1889 31.7502C40.1649 31.7502 41.9703 32.5787 43.264 33.9014L45.2968 31.8229C43.4772 29.9624 40.961 28.8141 38.1889 28.8141C35.4168 28.8141 32.9006 29.9624 31.0809 31.8229ZM38.1889 23C33.8957 23 30.0005 24.7878 27.1716 27.6658L29.176 29.7153C31.479 27.3606 34.6776 25.9071 38.1889 25.9071C41.7002 25.9071 44.8988 27.3606 47.2018 29.7153L49.2062 27.6658C46.284 24.6787 42.3211 23.0004 38.1889 23ZM42.2546 36.0963L34.1231 36.0817C33.2275 36.0817 32.5025 36.823 32.5025 37.7388V51.8525C32.5025 52.7682 33.2275 53.5095 34.1231 53.5095H42.2404C43.136 53.5095 43.861 52.7682 43.861 51.8525V37.7388C43.8753 36.823 43.1502 36.0963 42.2546 36.0963ZM42.4537 50.617H33.9241V38.9888H42.4537V50.617Z" fill="white"/>
<defs>
<linearGradient id="paint0_linear_148_776" x1="38.6126" y1="0" x2="38.6126" y2="75.4263" gradientUnits="userSpaceOnUse">
<stop stop-color="#FFBF88"/>
<stop offset="1" stop-color="#FF9C48"/>
</linearGradient>
</defs>
</svg>
