<svg width="77" height="76" viewBox="0 0 77 76" fill="none" xmlns="http://www.w3.org/2000/svg">
<circle cx="38.6126" cy="38.1188" r="37.2131" fill="url(#paint0_linear_148_780)" stroke="#D26C94"/>
<path d="M51.6141 45.5494C51.2214 45.5494 50.892 45.4119 50.6259 45.1368C50.3598 44.8617 50.2273 44.5217 50.2282 44.1168V35.6641L39.1063 41.9319C38.8984 42.0513 38.685 42.1411 38.466 42.2013C38.2471 42.2615 38.0101 42.2911 37.7551 42.2901C37.501 42.2901 37.264 42.2605 37.0441 42.2013C36.8242 42.1421 36.6108 42.0523 36.4038 41.9319L24.7276 35.3417C24.4966 35.2223 24.3174 35.049 24.1899 34.8216C24.0624 34.5943 23.9991 34.3498 24 34.0881C24 33.8255 24.0638 33.5805 24.1913 33.3532C24.3188 33.1259 24.4975 32.953 24.7276 32.8345L36.4385 26.2443C36.6464 26.1249 36.8602 26.0351 37.0801 25.975C37.3 25.9148 37.525 25.8852 37.7551 25.8861C37.9861 25.8861 38.2115 25.9162 38.4314 25.9764C38.6513 26.0366 38.8647 26.1259 39.0717 26.2443L52.2724 33.6941C52.5034 33.8135 52.6826 33.9869 52.8101 34.2142C52.9376 34.4415 53.0009 34.686 53 34.9477V44.1168C53 44.5227 52.8669 44.8632 52.6009 45.1382C52.3348 45.4133 52.0058 45.5504 51.6141 45.5494ZM37.7551 50.8861C37.5241 50.8861 37.2987 50.856 37.0788 50.7958C36.8589 50.7357 36.6454 50.6464 36.4385 50.5279L29.509 46.6597C29.047 46.3971 28.689 46.0451 28.4349 45.6039C28.1808 45.1626 28.0538 44.6669 28.0538 44.1168V38.6726L35.9188 43.0781C36.219 43.2452 36.5193 43.3947 36.8196 43.5265C37.1199 43.6583 37.4317 43.7237 37.7551 43.7228C38.0785 43.7228 38.3963 43.6511 38.7086 43.5079C39.0209 43.3646 39.3267 43.2094 39.626 43.0423L47.4564 38.6726V44.1168C47.4564 44.6659 47.3293 45.1616 47.0753 45.6039C46.8212 46.0461 46.4632 46.398 46.0012 46.6597L39.0717 50.5279C38.8638 50.6473 38.6504 50.7371 38.4314 50.7973C38.2124 50.8574 37.987 50.887 37.7551 50.8861Z" fill="white"/>
<defs>
<linearGradient id="paint0_linear_148_780" x1="38.6126" y1="0.40564" x2="38.6126" y2="75.8319" gradientUnits="userSpaceOnUse">
<stop stop-color="#D26C94"/>
<stop offset="1" stop-color="#B04F75"/>
</linearGradient>
</defs>
</svg>
