<svg width="77" height="76" viewBox="0 0 77 76" fill="none" xmlns="http://www.w3.org/2000/svg">
<circle cx="38.328" cy="37.7131" r="37.2131" fill="url(#paint0_linear_148_781)" stroke="#60D669"/>
<path d="M48.2317 29.1955H42.924V24.6955C42.924 24.4568 42.8308 24.2279 42.6649 24.0591C42.499 23.8904 42.274 23.7955 42.0394 23.7955C41.8048 23.7955 41.5798 23.8904 41.4139 24.0591C41.248 24.2279 41.1548 24.4568 41.1548 24.6955V29.1955H34.0779V24.6955C34.0779 24.4568 33.9847 24.2279 33.8188 24.0591C33.6529 23.8904 33.4279 23.7955 33.1933 23.7955C32.8383 23.7955 32.3086 24.0509 32.3086 24.7563V29.1955H27.0618C26.3684 29.1955 26.1163 29.7333 26.1163 30.0955C26.1163 30.3342 26.2095 30.5631 26.3754 30.7319C26.5413 30.9007 26.7663 30.9955 27.0009 30.9955H28.7702V40.8955C28.7702 42.089 29.2362 43.2336 30.0657 44.0775C30.8952 44.9214 32.0202 45.3955 33.1933 45.3955H36.7317V49.8955C36.7317 50.1342 36.8249 50.3631 36.9908 50.5319C37.1567 50.7007 37.3817 50.7955 37.6163 50.7955C37.8509 50.7955 38.076 50.7007 38.2419 50.5319C38.4077 50.3631 38.5009 50.1342 38.5009 49.8955V45.3955H42.0394C43.2125 45.3955 44.3375 44.9214 45.167 44.0775C45.9965 43.2336 46.4625 42.089 46.4625 40.8955V30.9955H48.2317C48.4663 30.9955 48.6913 30.9007 48.8572 30.7319C49.0231 30.5631 49.1163 30.3342 49.1163 30.0955C49.1163 29.8568 49.0231 29.6279 48.8572 29.4591C48.6913 29.2904 48.4663 29.1955 48.2317 29.1955ZM40.2138 37.6117L38.8869 41.2117C38.8045 41.4354 38.638 41.6167 38.4242 41.7157C38.2104 41.8146 37.9668 41.8231 37.7468 41.7393C37.5269 41.6554 37.3487 41.4861 37.2514 41.2686C37.1541 41.0511 37.1458 40.8032 37.2282 40.5794L38.1128 38.1955H35.8471C35.7042 38.1955 35.5633 38.1603 35.4367 38.0928C35.3101 38.0253 35.2014 37.9276 35.12 37.8081C35.0386 37.6886 34.9869 37.5507 34.9693 37.4064C34.9516 37.2621 34.9687 37.1156 35.0189 36.9794L36.3458 33.3794C36.4282 33.1556 36.5946 32.9743 36.8084 32.8754C37.0222 32.7764 37.2659 32.7679 37.4859 32.8518C37.7058 32.9356 37.884 33.1049 37.9813 33.3224C38.0785 33.54 38.0869 33.7879 38.0045 34.0117L37.1198 36.3955H39.3856C39.5285 36.3955 39.6693 36.4308 39.796 36.4983C39.9226 36.5657 40.0313 36.6634 40.1127 36.783C40.1941 36.9025 40.2458 37.0403 40.2634 37.1847C40.281 37.329 40.264 37.4755 40.2138 37.6117Z" fill="white"/>
<defs>
<linearGradient id="paint0_linear_148_781" x1="38.328" y1="0" x2="38.328" y2="75.4263" gradientUnits="userSpaceOnUse">
<stop stop-color="#60D669"/>
<stop offset="1" stop-color="#24BE2F"/>
</linearGradient>
</defs>
</svg>
