<svg width="151" height="46" viewBox="0 0 151 46" fill="none" xmlns="http://www.w3.org/2000/svg">
<path d="M128.04 0H22.9601C10.2796 0 0 10.2975 0 23C0 35.7025 10.2796 46 22.9601 46H128.04C140.72 46 151 35.7025 151 23C151 10.2975 140.72 0 128.04 0Z" fill="black"/>
<path d="M55.8066 26.8008H57.4214V30.4711C56.9274 30.86 56.3661 31.1543 55.7655 31.3391C55.1371 31.5402 54.4813 31.6419 53.8217 31.6406C52.939 31.6535 52.0674 31.4434 51.2872 31.0297C50.5533 30.6391 49.9409 30.0538 49.5169 29.3377C49.095 28.5964 48.8731 27.7577 48.8731 26.9043C48.8731 26.0509 49.095 25.2123 49.5169 24.4709C49.9431 23.7538 50.5589 23.1686 51.2962 22.78C52.083 22.3657 52.961 22.1556 53.8498 22.1691C54.5698 22.1586 55.2851 22.288 55.956 22.5499C56.5668 22.7909 57.1114 23.1742 57.5447 23.6681L56.4676 24.7231C56.1393 24.3834 55.7451 24.1147 55.3092 23.9336C54.8732 23.7525 54.4049 23.6628 53.933 23.6701C53.3323 23.6592 52.7385 23.7994 52.2059 24.0781C51.7113 24.3386 51.3003 24.7339 51.0204 25.2184C50.73 25.7312 50.5824 26.3128 50.5931 26.9023C50.5846 27.4833 50.7322 28.0559 51.0204 28.5601C51.3004 29.0475 51.7092 29.448 52.2019 29.7175C52.7271 30.0047 53.3177 30.1508 53.916 30.1415C54.5772 30.156 55.2302 29.9922 55.8066 29.6673V26.8008Z" fill="white"/>
<path d="M60.7442 31.1463C60.1884 30.8525 59.7265 30.4079 59.4113 29.8632C59.0965 29.2945 58.9313 28.6548 58.9313 28.0045C58.9313 27.3542 59.0965 26.7145 59.4113 26.1458C59.7279 25.6041 60.1897 25.1621 60.7442 24.8698C61.3403 24.5666 61.9994 24.4086 62.6679 24.4086C63.3365 24.4086 63.9955 24.5666 64.5916 24.8698C65.1458 25.1626 65.6074 25.6045 65.9246 26.1458C66.2394 26.7145 66.4046 27.3542 66.4046 28.0045C66.4046 28.6548 66.2394 29.2945 65.9246 29.8632C65.6089 30.4074 65.147 30.8519 64.5916 31.1463C63.9954 31.4488 63.3363 31.6064 62.6679 31.6064C61.9995 31.6064 61.3405 31.4488 60.7442 31.1463ZM64.1543 29.594C64.5488 29.1921 64.7458 28.6616 64.7451 28.0025C64.7444 27.3434 64.5475 26.8129 64.1543 26.411C63.96 26.2122 63.7266 26.0559 63.4688 25.9521C63.211 25.8483 62.9346 25.7993 62.6569 25.8082C62.3802 25.799 62.1047 25.8478 61.848 25.9516C61.5913 26.0555 61.3592 26.2119 61.1665 26.411C60.7773 26.8129 60.5828 27.3434 60.5828 28.0025C60.5828 28.6616 60.7773 29.1921 61.1665 29.594C61.3593 29.7929 61.5915 29.9493 61.8481 30.0531C62.1048 30.1569 62.3803 30.2059 62.6569 30.1968C62.9355 30.2057 63.2129 30.1564 63.4715 30.0519C63.73 29.9474 63.9639 29.7901 64.1584 29.59L64.1543 29.594Z" fill="white"/>
<path d="M69.2133 31.1463C68.658 30.8519 68.1961 30.4074 67.8804 29.8632C67.5662 29.2943 67.4014 28.6547 67.4014 28.0045C67.4014 27.3543 67.5662 26.7147 67.8804 26.1458C68.1976 25.6045 68.6592 25.1626 69.2133 24.8698C69.8094 24.5666 70.4685 24.4086 71.1371 24.4086C71.8056 24.4086 72.4647 24.5666 73.0608 24.8698C73.6153 25.1621 74.0771 25.6041 74.3937 26.1458C74.7085 26.7145 74.8737 27.3542 74.8737 28.0045C74.8737 28.6548 74.7085 29.2945 74.3937 29.8632C74.0785 30.4079 73.6166 30.8525 73.0608 31.1463C72.4645 31.4488 71.8055 31.6064 71.1371 31.6064C70.4687 31.6064 69.8096 31.4488 69.2133 31.1463ZM72.6235 29.594C73.0173 29.1921 73.2146 28.6616 73.2152 28.0025C73.2159 27.3434 73.0186 26.8129 72.6235 26.411C72.2231 26.0225 71.6875 25.8052 71.13 25.8052C70.5726 25.8052 70.037 26.0225 69.6366 26.411C69.2468 26.8129 69.0519 27.3434 69.0519 28.0025C69.0519 28.6616 69.2468 29.1921 69.6366 29.594C70.0372 29.9821 70.5727 30.199 71.13 30.199C71.6873 30.199 72.2228 29.9821 72.6235 29.594Z" fill="white"/>
<path d="M83.4084 24.486V30.4429C83.4084 32.9152 82.148 34.1517 79.6272 34.1524C78.9793 34.156 78.3339 34.0698 77.7095 33.8962C77.1644 33.7548 76.6545 33.5016 76.2121 33.1527L76.9483 31.9159C77.2936 32.1911 77.6876 32.3987 78.1097 32.5277C78.5696 32.6799 79.0507 32.7576 79.5349 32.7578C80.3052 32.7578 80.8699 32.5827 81.229 32.2323C81.588 31.882 81.7676 31.3462 81.7676 30.6248V30.2571C81.484 30.5654 81.1332 30.804 80.7425 30.9543C80.3192 31.1157 79.8694 31.1957 79.4166 31.1905C78.7889 31.1992 78.1687 31.0526 77.6112 30.7634C77.0832 30.4877 76.6422 30.0703 76.3375 29.5578C76.0317 29.0171 75.871 28.4063 75.871 27.785C75.871 27.1636 76.0317 26.5528 76.3375 26.0121C76.6433 25.5044 77.0844 25.092 77.6112 24.8215C78.1699 24.5363 78.7896 24.3918 79.4166 24.4006C79.89 24.3943 80.3603 24.4792 80.8017 24.6507C81.2089 24.813 81.5675 25.0777 81.8428 25.4194V24.485L83.4084 24.486ZM81.1959 29.2373C81.5971 28.8649 81.7977 28.3803 81.7977 27.7835C81.8063 27.5152 81.7571 27.2482 81.6532 27.0007C81.5493 26.7532 81.3933 26.5312 81.1959 26.3497C80.7947 25.982 80.2848 25.7978 79.6663 25.7971C79.0478 25.7965 78.5333 25.9807 78.1228 26.3497C77.9252 26.5312 77.7692 26.7532 77.6653 27.0007C77.5615 27.2481 77.5122 27.5152 77.521 27.7835C77.521 28.3803 77.7216 28.8649 78.1228 29.2373C78.5239 29.6097 79.0385 29.7959 79.6663 29.7959C80.2875 29.7986 80.7974 29.6124 81.1959 29.2373Z" fill="white"/>
<path d="M85.5618 21.7501H87.2037V31.5099H85.5618V21.7501Z" fill="white"/>
<path d="M95.9226 28.524H90.4203C90.5013 29.0175 90.7725 29.4594 91.1755 29.7547C91.5827 30.0568 92.0882 30.2079 92.692 30.2079C93.4623 30.2079 94.0975 29.9537 94.5977 29.4453L95.4773 30.458C95.1566 30.8389 94.7455 31.1329 94.2817 31.3131C93.6905 31.53 93.0621 31.6266 92.4331 31.5973C91.8042 31.5679 91.1874 31.4132 90.6189 31.1423C90.0523 30.8541 89.5805 30.4087 89.2598 29.8592C88.9355 29.2936 88.7698 28.6507 88.7804 27.9985C88.771 27.352 88.9315 26.7145 89.2458 26.1498C89.549 25.6098 89.9972 25.1656 90.5396 24.8678C91.111 24.5554 91.7533 24.3965 92.4042 24.4066C93.044 24.396 93.6755 24.5525 94.2366 24.8608C94.7688 25.1581 95.206 25.6006 95.4973 26.1368C95.8079 26.7212 95.9637 27.3757 95.9497 28.0377C95.9487 28.1522 95.9397 28.314 95.9226 28.524ZM91.0702 26.189C90.7035 26.5074 90.4674 26.9505 90.4072 27.4328H94.3861C94.3331 26.9494 94.0989 26.5042 93.7308 26.1872C93.3627 25.8701 92.8882 25.7049 92.4032 25.7248C91.9171 25.7108 91.4428 25.8759 91.0702 26.189Z" fill="white"/>
<path d="M107.17 22.6966C107.725 22.9302 108.198 23.324 108.529 23.8279C108.838 24.3577 109.001 24.9603 109.001 25.5741C109.001 26.1878 108.838 26.7905 108.529 27.3203C108.2 27.8278 107.727 28.2244 107.17 28.4586C106.511 28.7351 105.802 28.8696 105.088 28.8535H103.014V31.51H101.309V22.3047H105.09C105.803 22.2884 106.511 22.4219 107.17 22.6966ZM106.704 26.9325C107.089 26.617 107.281 26.1655 107.281 25.5781C107.281 24.9907 107.089 24.5389 106.704 24.2228C106.318 23.9073 105.754 23.7495 105.01 23.7495H103.014V27.4067H105.012C105.754 27.4067 106.318 27.2486 106.704 26.9325Z" fill="white"/>
<path d="M110.682 21.7501H112.323V31.5099H110.682V21.7501Z" fill="white"/>
<path d="M119.527 25.1501C120.073 25.6451 120.346 26.3926 120.347 27.3926V31.512H118.797V30.6569C118.586 30.9714 118.287 31.2162 117.937 31.3602C117.51 31.5326 117.051 31.6153 116.591 31.6034C116.118 31.6134 115.648 31.5216 115.213 31.3341C114.844 31.1754 114.527 30.9152 114.3 30.5836C114.085 30.2631 113.973 29.8846 113.978 29.4985C113.969 29.2079 114.027 28.9191 114.149 28.6553C114.271 28.3915 114.453 28.16 114.68 27.9794C115.148 27.5976 115.886 27.407 116.893 27.4077H118.705V27.3072C118.705 26.8156 118.559 26.4385 118.266 26.1759C117.973 25.9133 117.538 25.7817 116.962 25.781C116.567 25.7811 116.175 25.8432 115.8 25.9649C115.448 26.0728 115.121 26.2471 114.835 26.4783L114.191 25.2817C114.589 24.986 115.039 24.7672 115.518 24.6367C116.052 24.4852 116.604 24.4098 117.159 24.4126C118.19 24.4086 118.979 24.6544 119.527 25.1501ZM118.029 30.1224C118.342 29.9426 118.581 29.6579 118.705 29.3187V28.5028H117.011C116.066 28.5028 115.594 28.8143 115.593 29.4372C115.589 29.5744 115.62 29.7104 115.681 29.8332C115.742 29.956 115.832 30.0619 115.944 30.1415C116.18 30.3163 116.508 30.4041 116.929 30.4048C117.315 30.4128 117.695 30.3152 118.029 30.1224Z" fill="white"/>
<path d="M128.882 24.486L125.6 32.0756C125.293 32.8392 124.921 33.375 124.483 33.6831C124.016 34.0033 123.46 34.1668 122.895 34.1503C122.542 34.1497 122.191 34.092 121.857 33.9795C121.546 33.8828 121.26 33.7211 121.017 33.5053L121.673 32.2996C121.836 32.4517 122.025 32.5719 122.232 32.6543C122.437 32.7408 122.658 32.7856 122.882 32.7859C123.138 32.7961 123.391 32.7173 123.597 32.5629C123.785 32.4128 123.958 32.163 124.115 31.8134L124.234 31.5371L121.175 24.486H122.88L125.086 29.6824L127.306 24.486H128.882Z" fill="white"/>
<path d="M45.7186 22.6795L41.3055 20.1285L37.6768 23.645L40.9936 26.8601L45.7186 24.1273C45.8448 24.054 45.9495 23.9488 46.0223 23.8222C46.0951 23.6956 46.1335 23.552 46.1335 23.4059C46.1335 23.2598 46.0951 23.1163 46.0223 22.9896C45.9495 22.863 45.8448 22.7578 45.7186 22.6845V22.6795Z" fill="#FFD109"/>
<path d="M40.5573 19.6955L35.7009 16.8873L25.0593 11.4247L37.079 23.0643L40.5573 19.6955Z" fill="#06EF79"/>
<path d="M25.2358 35.6896L35.7189 29.9044L40.2444 27.2881L37.079 24.2227L25.2358 35.6896Z" fill="#F93646"/>
<path d="M24.3493 11.8959L24.3383 35.4012L36.4813 23.643L24.3493 11.8959Z" fill="#05D5FB"/>
<path d="M51.8107 17.1907C51.451 17.193 51.0959 17.1097 50.7747 16.9476C50.4554 16.787 50.1706 16.5655 49.9362 16.2955C49.6985 16.0227 49.5104 15.7101 49.3805 15.3722C49.2481 15.0338 49.1801 14.6736 49.1799 14.3102C49.1769 13.5747 49.4439 12.8638 49.9302 12.3128C50.1629 12.0498 50.4469 11.8371 50.7646 11.6879C51.0915 11.5353 51.4482 11.4577 51.8087 11.4608C52.3543 11.4608 52.8047 11.575 53.1597 11.8034C53.5044 12.0203 53.7822 12.3288 53.9621 12.6946L53.4145 13.0764C53.2699 12.7689 53.0342 12.5135 52.7395 12.345C52.4503 12.1844 52.1243 12.102 51.7937 12.1058C51.5232 12.1023 51.256 12.1651 51.0154 12.2887C50.782 12.4122 50.577 12.5833 50.4136 12.791C50.2453 13.0039 50.1162 13.2451 50.0325 13.5034C49.9448 13.7705 49.9004 14.0501 49.9011 14.3313C49.8998 14.6211 49.9497 14.9089 50.0485 15.1813C50.1423 15.4398 50.2839 15.6784 50.4657 15.8846C50.6408 16.085 50.8539 16.2486 51.0926 16.3658C51.3328 16.4828 51.5968 16.5426 51.8639 16.5407C52.187 16.5404 52.5044 16.4556 52.7846 16.2945C53.1082 16.1007 53.3894 15.8434 53.6111 15.538V16.2784C53.1049 16.8866 52.5048 17.1907 51.8107 17.1907ZM53.5268 14.8748H52.3112V14.3343H54.1306V17.1475H53.5288L53.5268 14.8748Z" fill="white"/>
<path d="M59.0472 16.5145V17.1505H55.2188V11.501H58.975V12.138H55.9339V13.9656H58.5788V14.5684H55.9339V16.5186L59.0472 16.5145Z" fill="white"/>
<path d="M64.0902 12.138H62.1444V17.1505H61.4293V12.138H59.4835V11.501H64.0902V12.138Z" fill="white"/>
<path d="M66.6728 17.1505V11.501H67.3879V17.1505H66.6728Z" fill="white"/>
<path d="M69.4531 12.8222V17.1505H68.7379V11.501H69.3397L72.787 15.9218V11.509H73.5021V17.1505H72.8511L69.4531 12.8222Z" fill="white"/>
<path d="M79.1518 17.1907C78.7781 17.1961 78.4083 17.1142 78.0716 16.9516C77.7512 16.7952 77.4662 16.5746 77.2341 16.3036C76.7612 15.7536 76.5004 15.0522 76.499 14.3263C76.4968 13.9571 76.5648 13.5909 76.6995 13.2472C76.8313 12.9111 77.0222 12.6014 77.2632 12.3329C77.5011 12.0672 77.7887 11.8508 78.1097 11.6959C78.4392 11.5377 78.8005 11.4573 79.1659 11.4608C79.5405 11.4556 79.9109 11.5403 80.2461 11.708C80.5654 11.87 80.8492 12.0945 81.0806 12.3681C81.3124 12.6422 81.495 12.9547 81.6202 13.2914C81.8122 13.8009 81.8609 14.3534 81.7607 14.8887C81.6606 15.424 81.4156 15.9214 81.0525 16.3267C80.8154 16.5923 80.5276 16.8075 80.206 16.9596C79.8763 17.1149 79.5161 17.1938 79.1518 17.1907ZM77.2221 14.3263C77.2215 14.6091 77.2683 14.8899 77.3605 15.1572C77.4485 15.4161 77.5816 15.6572 77.7537 15.8695C77.9212 16.0747 78.1296 16.2427 78.3655 16.3628C78.6118 16.4868 78.8842 16.5496 79.1599 16.5457C79.4416 16.5506 79.7202 16.485 79.9703 16.3548C80.2062 16.2295 80.4133 16.056 80.5781 15.8454C80.746 15.6312 80.875 15.3891 80.9592 15.13C81.0456 14.8709 81.09 14.5995 81.0906 14.3263C81.091 14.0444 81.0439 13.7645 80.9512 13.4984C80.8609 13.2389 80.7251 12.9976 80.55 12.786C80.3824 12.5808 80.1741 12.4128 79.9382 12.2927C79.6953 12.1716 79.4271 12.1103 79.1558 12.1139C78.8745 12.1091 78.5963 12.1733 78.3454 12.3008C78.1097 12.4233 77.9025 12.5945 77.7376 12.8031C77.5701 13.0171 77.4398 13.258 77.3525 13.5155C77.264 13.7765 77.2199 14.0506 77.2221 14.3263Z" fill="white"/>
<path d="M83.5208 12.8222V17.1505H82.8057V11.501H83.4074L86.8547 15.9218V11.509H87.5698V17.1505H86.9189L83.5208 12.8222Z" fill="white"/>
</svg>
