<svg width="151" height="46" viewBox="0 0 151 46" fill="none" xmlns="http://www.w3.org/2000/svg">
<path d="M128.04 0H22.9601C10.2796 0 0 10.2975 0 23C0 35.7025 10.2796 46 22.9601 46H128.04C140.72 46 151 35.7025 151 23C151 10.2975 140.72 0 128.04 0Z" fill="black"/>
<path d="M25.0874 19.7839C23.1045 23.2291 24.3653 28.4586 26.5568 31.6285C27.651 33.214 28.7633 34.6366 30.2758 34.6366C30.3049 34.6366 30.333 34.6366 30.3631 34.6366C31.0752 34.6085 31.5907 34.3885 32.0882 34.1765C32.6479 33.9374 33.2266 33.6912 34.1333 33.6912C34.9968 33.6912 35.5475 33.9293 36.08 34.1604C36.6126 34.3915 37.1452 34.6236 37.9446 34.6085C39.6496 34.5764 40.7028 33.0412 41.6285 31.6868C42.3216 30.6644 42.8651 29.5479 43.2423 28.3712L43.2493 28.3501C43.2642 28.3053 43.2622 28.2565 43.2437 28.2131C43.2253 28.1696 43.1916 28.1344 43.149 28.114L43.135 28.108C42.8341 27.9854 40.1942 26.8119 40.1662 23.6139C40.1401 21.0167 42.147 19.6402 42.5492 19.3941L42.5683 19.382C42.59 19.3682 42.6087 19.3501 42.6232 19.3289C42.6378 19.3077 42.6479 19.2837 42.6529 19.2585C42.658 19.2332 42.6579 19.2072 42.6527 19.182C42.6474 19.1568 42.6372 19.1329 42.6225 19.1117C41.2373 17.0822 39.112 16.7758 38.2605 16.7396C38.1342 16.7266 38.0073 16.7202 37.8804 16.7205C36.8774 16.7205 35.9156 17.1003 35.1423 17.4057C34.6097 17.6167 34.1483 17.7986 33.8314 17.7986C33.4743 17.7986 33.0109 17.6137 32.4753 17.3967C31.7572 17.1114 30.9448 16.7939 30.0843 16.7939H30.0231C28.0201 16.821 26.1295 17.9684 25.0874 19.7839Z" fill="white"/>
<path d="M38.2605 11.1494C37.0489 11.1996 35.5946 11.9461 34.7261 12.9659C33.9879 13.8229 33.2667 15.2516 33.4563 16.6914C33.4621 16.7351 33.4827 16.7755 33.5146 16.8058C33.5466 16.8362 33.5879 16.8546 33.6318 16.8582C33.714 16.8642 33.7973 16.8672 33.8805 16.8672C35.0651 16.8672 36.3439 16.2111 37.2164 15.1532C38.1352 14.0369 38.5995 12.6042 38.4591 11.3212C38.4536 11.2728 38.4301 11.2282 38.3933 11.1964C38.3565 11.1646 38.3091 11.1478 38.2605 11.1494Z" fill="white"/>
<path d="M52.2029 13.0653H54.5007C55.0583 13.0547 55.6097 13.1832 56.1054 13.4391C56.5584 13.6753 56.9364 14.0338 57.1967 14.474C57.4525 14.9324 57.5868 15.4488 57.5868 15.974C57.5868 16.4992 57.4525 17.0156 57.1967 17.474C56.9367 17.9145 56.5587 18.273 56.1054 18.5089C55.6097 18.7649 55.0583 18.8933 54.5007 18.8827H52.2029V13.0653ZM54.4676 18.5009C54.9593 18.5108 55.446 18.4008 55.8858 18.1804C56.2808 17.9808 56.6094 17.6705 56.8316 17.2872C57.0495 16.8839 57.1636 16.4326 57.1636 15.974C57.1636 15.5154 57.0495 15.0641 56.8316 14.6608C56.6091 14.2778 56.2806 13.9675 55.8858 13.7676C55.4459 13.5475 54.9592 13.4379 54.4676 13.4481H52.6261V18.5009H54.4676Z" fill="white"/>
<path d="M59.5066 18.6335C59.1809 18.448 58.9127 18.1761 58.7313 17.8478C58.5462 17.4984 58.4495 17.1089 58.4495 16.7135C58.4495 16.318 58.5462 15.9285 58.7313 15.5791C58.9127 15.2511 59.181 14.9796 59.5066 14.7944C59.8462 14.6082 60.2272 14.5106 60.6144 14.5106C61.0015 14.5106 61.3825 14.6082 61.7221 14.7944C62.0479 14.9793 62.3163 15.2509 62.4974 15.5791C62.6825 15.9285 62.7792 16.318 62.7792 16.7135C62.7792 17.1089 62.6825 17.4984 62.4974 17.8478C62.3163 18.1763 62.048 18.4483 61.7221 18.6335C61.3822 18.8188 61.0014 18.9158 60.6144 18.9158C60.2273 18.9158 59.8465 18.8188 59.5066 18.6335ZM61.5065 18.3089C61.7691 18.1541 61.9842 17.9299 62.1283 17.6609C62.2786 17.3678 62.357 17.043 62.357 16.7135C62.357 16.3839 62.2786 16.0591 62.1283 15.766C61.9836 15.4974 61.7687 15.2734 61.5065 15.118C61.2339 14.9658 60.927 14.8859 60.6149 14.8859C60.3028 14.8859 59.9958 14.9658 59.7232 15.118C59.4607 15.2734 59.2454 15.4974 59.1004 15.766C58.9507 16.0593 58.8727 16.384 58.8727 16.7135C58.8727 17.0429 58.9507 17.3676 59.1004 17.6609C59.2448 17.93 59.4603 18.1541 59.7232 18.3089C59.9956 18.4618 60.3026 18.5421 60.6149 18.5421C60.9271 18.5421 61.2341 18.4618 61.5065 18.3089Z" fill="white"/>
<path d="M70.1291 14.5453L68.4872 18.8827H68.1021L66.6417 15.118L65.1734 18.8827H64.7923L63.1494 14.5453H63.5506L64.9939 18.4175L66.4712 14.5453H66.8273L68.2957 18.4094L69.756 14.5453H70.1291Z" fill="white"/>
<path d="M74.493 14.9854C74.8079 15.3009 74.9654 15.755 74.9654 16.3478V18.8827H74.5511V16.3809C74.5511 15.8933 74.4281 15.5222 74.182 15.2677C73.936 15.0132 73.5916 14.8859 73.149 14.8859C72.6408 14.8859 72.2396 15.0383 71.9454 15.343C71.6512 15.6478 71.5044 16.0577 71.5051 16.5728V18.8837H71.0909V14.5463H71.4921V15.4847C71.6376 15.1845 71.8705 14.9354 72.16 14.7704C72.4805 14.5921 72.8427 14.5029 73.2092 14.5121C73.7494 14.5115 74.1774 14.6692 74.493 14.9854Z" fill="white"/>
<path d="M76.6744 12.7167H77.0897V18.8827H76.6744V12.7167Z" fill="white"/>
<path d="M79.4246 18.6335C79.0987 18.448 78.8301 18.1762 78.6483 17.8478C78.4633 17.4984 78.3665 17.109 78.3665 16.7135C78.3665 16.318 78.4633 15.9285 78.6483 15.5792C78.8301 15.2511 79.0987 14.9796 79.4246 14.7945C79.7641 14.6084 80.1449 14.5109 80.5319 14.5109C80.9189 14.5109 81.2997 14.6084 81.6392 14.7945C81.965 14.9793 82.2333 15.2509 82.4145 15.5792C82.6003 15.9283 82.6974 16.3178 82.6974 16.7135C82.6974 17.1091 82.6003 17.4987 82.4145 17.8478C82.2334 18.1764 81.965 18.4483 81.6392 18.6335C81.2994 18.8188 80.9187 18.9159 80.5319 18.9159C80.145 18.9159 79.7644 18.8188 79.4246 18.6335ZM81.4235 18.309C81.6864 18.1544 81.9015 17.9301 82.0454 17.6609C82.1957 17.3678 82.2741 17.043 82.2741 16.7135C82.2741 16.384 82.1957 16.0592 82.0454 15.766C81.901 15.4973 81.6859 15.2732 81.4235 15.118C81.1509 14.9658 80.844 14.8859 80.5319 14.8859C80.2198 14.8859 79.9129 14.9658 79.6402 15.118C79.3779 15.2732 79.1628 15.4973 79.0184 15.766C78.8681 16.0592 78.7897 16.384 78.7897 16.7135C78.7897 17.043 78.8681 17.3678 79.0184 17.6609C79.1622 17.9301 79.3774 18.1544 79.6402 18.309C79.9126 18.4618 80.2197 18.5421 80.5319 18.5421C80.8441 18.5421 81.1511 18.4618 81.4235 18.309Z" fill="white"/>
<path d="M86.6621 14.923C86.9503 15.1977 87.0941 15.5996 87.0934 16.1287V18.8796H86.6922V18.107C86.5554 18.3608 86.3458 18.5676 86.0904 18.7008C85.7949 18.8494 85.4671 18.9222 85.1366 18.9128C84.6561 18.9128 84.275 18.7993 83.9962 18.5722C83.8677 18.464 83.7638 18.3296 83.6915 18.1779C83.6192 18.0261 83.5801 17.8607 83.577 17.6926C83.5739 17.5245 83.6067 17.3576 83.6733 17.2033C83.7399 17.049 83.8387 16.9107 83.9631 16.7978C84.2199 16.5735 84.6304 16.4613 85.1948 16.4613H86.6802V16.1126C86.6802 15.7107 86.5708 15.4033 86.3522 15.1903C86.1335 14.9773 85.8143 14.8718 85.3943 14.8738C85.1124 14.8729 84.8326 14.9237 84.5689 15.0235C84.3229 15.114 84.0962 15.2504 83.9009 15.4254L83.6933 15.124C83.9212 14.9233 84.1864 14.7697 84.4736 14.6719C84.7798 14.563 85.1025 14.5079 85.4274 14.5091C85.963 14.5104 86.3746 14.6484 86.6621 14.923ZM86.1105 18.326C86.3702 18.1497 86.5689 17.8969 86.6792 17.6026V16.7888H85.2028C84.7765 16.7888 84.4686 16.8662 84.277 17.0209C84.1829 17.0979 84.108 17.1958 84.0583 17.3069C84.0087 17.4181 83.9857 17.5393 83.9912 17.6609C83.9863 17.7895 84.0124 17.9175 84.0672 18.0339C84.122 18.1504 84.204 18.2519 84.3061 18.33C84.5167 18.4941 84.8126 18.5759 85.1937 18.5752C85.5172 18.5851 85.8363 18.4984 86.1105 18.326Z" fill="white"/>
<path d="M92.6599 12.7167V18.8827H92.2587V17.8609C92.0989 18.1859 91.8479 18.4571 91.5366 18.6415C91.2169 18.827 90.8528 18.9218 90.4835 18.9158C90.0998 18.921 89.7217 18.8235 89.3882 18.6335C89.0653 18.4489 88.7997 18.1784 88.6209 17.8518C88.4314 17.5029 88.3356 17.1106 88.3431 16.7135C88.3362 16.3151 88.4319 15.9217 88.6209 15.5711C88.7978 15.2434 89.0639 14.9727 89.3882 14.7904C89.7223 14.6023 90.1002 14.5059 90.4835 14.5111C90.849 14.5054 91.2091 14.6002 91.5246 14.7854C91.8318 14.9688 92.0826 15.2333 92.2497 15.55V12.7167H92.6599ZM91.3952 18.309C91.6576 18.1538 91.8726 17.9297 92.017 17.6609C92.1667 17.3676 92.2447 17.0429 92.2447 16.7135C92.2447 16.3841 92.1667 16.0593 92.017 15.766C91.872 15.4977 91.6571 15.2737 91.3952 15.118C91.1224 14.9658 90.8153 14.8859 90.503 14.8859C90.1908 14.8859 89.8837 14.9658 89.6109 15.118C89.3487 15.2734 89.1337 15.4975 88.989 15.766C88.8394 16.0593 88.7613 16.3841 88.7613 16.7135C88.7613 17.0429 88.8394 17.3676 88.989 17.6609C89.1332 17.9299 89.3483 18.1541 89.6109 18.309C89.8835 18.4618 90.1906 18.5421 90.503 18.5421C90.8154 18.5421 91.1226 18.4618 91.3952 18.309Z" fill="white"/>
<path d="M97.1272 18.6335C96.8013 18.448 96.5327 18.1762 96.3509 17.8478C96.1658 17.4984 96.0691 17.109 96.0691 16.7135C96.0691 16.318 96.1658 15.9285 96.3509 15.5792C96.5327 15.2511 96.8013 14.9796 97.1272 14.7945C97.4667 14.6084 97.8475 14.5109 98.2345 14.5109C98.6215 14.5109 99.0022 14.6084 99.3417 14.7945C99.6675 14.9793 99.9359 15.2509 100.117 15.5792C100.303 15.9283 100.4 16.3178 100.4 16.7135C100.4 17.1091 100.303 17.4987 100.117 17.8478C99.9359 18.1764 99.6676 18.4483 99.3417 18.6335C99.002 18.8188 98.6213 18.9159 98.2345 18.9159C97.8476 18.9159 97.4669 18.8188 97.1272 18.6335ZM99.1261 18.309C99.3889 18.1544 99.6041 17.9301 99.748 17.6609C99.8983 17.3678 99.9766 17.043 99.9766 16.7135C99.9766 16.384 99.8983 16.0592 99.748 15.766C99.6035 15.4973 99.3885 15.2732 99.1261 15.118C98.8535 14.9658 98.5466 14.8859 98.2345 14.8859C97.9224 14.8859 97.6154 14.9658 97.3428 15.118C97.0803 15.2734 96.865 15.4974 96.72 15.766C96.5703 16.0594 96.4923 16.3841 96.4923 16.7135C96.4923 17.0429 96.5703 17.3676 96.72 17.6609C96.8644 17.93 97.0799 18.1541 97.3428 18.309C97.6152 18.4618 97.9222 18.5421 98.2345 18.5421C98.5467 18.5421 98.8537 18.4618 99.1261 18.309Z" fill="white"/>
<path d="M105.087 14.9854C105.402 15.3009 105.559 15.755 105.559 16.3478V18.8827H105.144V16.3809C105.144 15.8933 105.021 15.5222 104.775 15.2677C104.529 15.0132 104.185 14.8859 103.743 14.8859C103.233 14.8859 102.833 15.0376 102.539 15.343C102.245 15.6485 102.1 16.0574 102.1 16.5728V18.8837H101.686V14.5463H102.087V15.4847C102.232 15.1845 102.465 14.9354 102.755 14.7704C103.076 14.5921 103.438 14.5029 103.805 14.5121C104.342 14.5115 104.769 14.6692 105.087 14.9854Z" fill="white"/>
<path d="M111.548 18.6084C111.435 18.7127 111.301 18.7906 111.155 18.8364C110.995 18.8897 110.828 18.9165 110.66 18.9158C110.285 18.9158 109.994 18.812 109.79 18.6043C109.585 18.3967 109.483 18.1073 109.483 17.7363V14.9019H108.686V14.5453H109.483V13.5978H109.898V14.5453H111.275V14.9019H109.898V17.6941C109.898 17.9761 109.965 18.1907 110.099 18.3381C110.232 18.4854 110.433 18.5588 110.7 18.5581C110.947 18.5672 111.187 18.4813 111.372 18.318L111.548 18.6084Z" fill="white"/>
<path d="M116.102 14.9854C116.417 15.3009 116.575 15.755 116.576 16.3478V18.8827H116.161V16.3809C116.161 15.8933 116.038 15.5222 115.792 15.2677C115.546 15.0132 115.201 14.8859 114.759 14.8859C114.25 14.8859 113.848 15.0383 113.555 15.343C113.261 15.6478 113.115 16.0577 113.116 16.5728V18.8837H112.7V12.7177H113.116V15.4516C113.26 15.1574 113.492 14.9149 113.779 14.7573C114.098 14.5879 114.455 14.5035 114.816 14.5121C115.358 14.5115 115.787 14.6692 116.102 14.9854Z" fill="white"/>
<path d="M121.951 16.8129H118.226C118.231 17.1318 118.32 17.4438 118.484 17.7172C118.64 17.9768 118.866 18.1882 119.134 18.328C119.42 18.4748 119.738 18.549 120.059 18.5441C120.328 18.5466 120.595 18.4943 120.844 18.3903C121.079 18.2922 121.286 18.1364 121.445 17.9372L121.686 18.2115C121.495 18.4409 121.252 18.6205 120.977 18.735C120.644 18.8706 120.286 18.9318 119.927 18.9145C119.568 18.8971 119.217 18.8016 118.899 18.6345C118.568 18.4517 118.294 18.1813 118.106 17.8528C117.912 17.5055 117.813 17.1126 117.821 16.7145C117.814 16.3197 117.907 15.9297 118.09 15.5801C118.261 15.255 118.518 14.9835 118.833 14.7955C119.155 14.6111 119.521 14.5141 119.892 14.5141C120.264 14.5141 120.629 14.6111 120.952 14.7955C121.265 14.9809 121.521 15.2497 121.69 15.5721C121.874 15.92 121.967 16.3088 121.96 16.7024L121.951 16.8129ZM119.072 15.0808C118.829 15.2157 118.627 15.4139 118.488 15.6545C118.339 15.9089 118.252 16.195 118.235 16.4894H121.553C121.541 16.1959 121.455 15.9101 121.304 15.6585C121.158 15.4156 120.951 15.2155 120.703 15.0783C120.456 14.9411 120.177 14.8716 119.894 14.8768C119.607 14.8727 119.324 14.943 119.072 15.0808Z" fill="white"/>
<path d="M58.3441 31.742H53.3824L52.4045 34.0428H50.5049L54.9701 24.1022H56.7855L61.2648 34.0439H59.3371L58.3441 31.742ZM57.7353 30.2932L55.8658 25.9478L54.0082 30.2932H57.7353Z" fill="white"/>
<path d="M68.5303 26.8571C69.1055 27.1733 69.5798 27.6459 69.8984 28.2205C70.2236 28.849 70.3933 29.5466 70.3933 30.2546C70.3933 30.9625 70.2236 31.6601 69.8984 32.2886C69.5815 32.8663 69.107 33.3416 68.5303 33.659C67.9235 33.9878 67.2423 34.1542 66.5525 34.1423C65.5314 34.1423 64.7234 33.8014 64.1283 33.1195V36.7978H62.356V26.4592H64.043V27.4539C64.3315 27.0974 64.7046 26.819 65.1282 26.6441C65.5802 26.4598 66.0645 26.3679 66.5525 26.3738C67.2422 26.3625 67.9233 26.5289 68.5303 26.8571ZM67.9626 31.9691C68.3839 31.5344 68.5942 30.9617 68.5935 30.251C68.5929 29.5404 68.3826 28.9677 67.9626 28.533C67.7554 28.3181 67.5056 28.1489 67.2292 28.0365C66.9528 27.924 66.656 27.8707 66.3579 27.8799C65.9562 27.8738 65.5601 27.9739 65.2095 28.1703C64.87 28.367 64.5921 28.6548 64.4071 29.0012C64.2113 29.3886 64.1092 29.8168 64.1092 30.251C64.1092 30.6853 64.2113 31.1135 64.4071 31.5009C64.5919 31.8475 64.8698 32.1353 65.2095 32.3318C65.5601 32.5281 65.9562 32.6283 66.3579 32.6222C66.656 32.6314 66.9528 32.5781 67.2292 32.4656C67.5056 32.3531 67.7554 32.184 67.9626 31.9691Z" fill="white"/>
<path d="M78.2552 26.8571C78.8303 27.1733 79.3046 27.6459 79.6232 28.2205C79.9484 28.849 80.1181 29.5466 80.1181 30.2546C80.1181 30.9625 79.9484 31.6601 79.6232 32.2886C79.3063 32.8663 78.8318 33.3416 78.2552 33.659C77.6483 33.9878 76.9671 34.1542 76.2773 34.1423C75.2563 34.1423 74.4482 33.8014 73.8531 33.1195V36.7978H72.0808V26.4592H73.7678V27.4539C74.0562 27.0976 74.4289 26.8193 74.8521 26.6441C75.3044 26.4598 75.789 26.368 76.2773 26.3738C76.967 26.3625 77.6481 26.5289 78.2552 26.8571ZM77.6875 31.9691C78.1087 31.5344 78.319 30.9617 78.3183 30.251C78.3177 29.5404 78.1074 28.9677 77.6875 28.533C77.4802 28.3181 77.2304 28.1489 76.954 28.0365C76.6777 27.924 76.3809 27.8707 76.0827 27.8799C75.6811 27.8736 75.2849 27.9738 74.9343 28.1703C74.5946 28.3667 74.3167 28.6546 74.1319 29.0012C73.9361 29.3886 73.8341 29.8168 73.8341 30.251C73.8341 30.6853 73.9361 31.1135 74.1319 31.5009C74.3164 31.8477 74.5944 32.1356 74.9343 32.3318C75.2849 32.5282 75.6811 32.6284 76.0827 32.6222C76.3809 32.6314 76.6777 32.5781 76.954 32.4656C77.2304 32.3531 77.4802 32.184 77.6875 31.9691Z" fill="white"/>
<path d="M86.7463 33.858C86.0322 33.6396 85.4675 33.3509 85.0523 32.9919L85.6902 31.5572C86.1405 31.9029 86.6462 32.1696 87.1856 32.3459C87.7578 32.5451 88.3592 32.647 88.9649 32.6473C89.7004 32.6473 90.2507 32.5288 90.6158 32.2916C90.9809 32.0545 91.1631 31.7421 91.1624 31.3542C91.1663 31.2221 91.1414 31.0908 91.0894 30.9693C91.0375 30.8479 90.9597 30.7392 90.8615 30.6509C90.6366 30.4543 90.3733 30.3068 90.0882 30.2179C89.776 30.1134 89.3507 29.9949 88.8125 29.8622C88.1897 29.7221 87.5766 29.5419 86.977 29.3227C86.5124 29.1448 86.0989 28.8545 85.7734 28.4777C85.4391 28.0946 85.272 27.5765 85.272 26.9234C85.267 26.3902 85.4225 25.8678 85.7183 25.4244C86.0165 24.9749 86.4655 24.6176 87.0653 24.3524C87.6651 24.0871 88.4006 23.9548 89.2718 23.9555C89.8745 23.9551 90.4747 24.0314 91.0581 24.1826C91.5968 24.313 92.1095 24.5338 92.5746 24.8356L91.9929 26.2694C91.5665 26.0175 91.1094 25.822 90.6329 25.6876C90.1855 25.558 89.7225 25.4904 89.2568 25.4867C88.53 25.4867 87.989 25.6099 87.634 25.8564C87.469 25.9604 87.3335 26.1051 87.2404 26.2766C87.1473 26.4482 87.0998 26.6408 87.1024 26.836C87.098 26.967 87.1227 27.0973 87.1747 27.2176C87.2267 27.3378 87.3048 27.445 87.4033 27.5313C87.6293 27.7242 87.892 27.8691 88.1756 27.9573C88.4878 28.0618 88.9131 28.1803 89.4514 28.313C90.0683 28.4472 90.6749 28.6252 91.2667 28.8455C91.7325 29.0256 92.1481 29.3154 92.4783 29.6904C92.8127 30.0689 92.9798 30.5799 92.9798 31.2236C92.9852 31.7544 92.8296 32.2744 92.5335 32.7146C92.236 33.1601 91.7846 33.515 91.1795 33.7796C90.5744 34.0442 89.8388 34.1782 88.9729 34.1815C88.2188 34.1855 87.4683 34.0765 86.7463 33.858Z" fill="white"/>
<path d="M99.1863 33.6309C98.9621 33.8096 98.7037 33.9402 98.4271 34.0147C98.1202 34.1007 97.8029 34.1437 97.4842 34.1423C96.6531 34.1423 96.0105 33.9246 95.5565 33.4892C95.1025 33.0538 94.8758 32.4195 94.8765 31.5863V27.9362H93.6288V26.5165H94.8815V24.7833H96.6538V26.5165H98.6808V27.9362H96.6538V31.5431C96.6538 31.9128 96.7434 32.1945 96.9226 32.3881C97.1018 32.5816 97.3616 32.6788 97.7019 32.6794C98.0588 32.6922 98.4093 32.5819 98.6948 32.367L99.1863 33.6309Z" fill="white"/>
<path d="M101.724 33.642C101.124 33.3248 100.625 32.845 100.285 32.2574C99.9451 31.6436 99.767 30.9533 99.767 30.2515C99.767 29.5498 99.9451 28.8595 100.285 28.2456C100.627 27.6612 101.125 27.1841 101.724 26.8681C102.367 26.5412 103.079 26.3708 103.801 26.3708C104.522 26.3708 105.234 26.5412 105.877 26.8681C106.475 27.1844 106.974 27.6614 107.316 28.2456C107.656 28.8595 107.834 29.5498 107.834 30.2515C107.834 30.9533 107.656 31.6436 107.316 32.2574C106.976 32.8448 106.477 33.3245 105.877 33.642C105.234 33.9689 104.522 34.1393 103.801 34.1393C103.079 34.1393 102.367 33.9689 101.724 33.642ZM105.41 31.9661C105.835 31.5314 106.048 30.9587 106.048 30.248C106.048 29.5373 105.835 28.9647 105.41 28.5299C105.2 28.3148 104.948 28.1456 104.67 28.0331C104.392 27.9207 104.093 27.8675 103.793 27.8769C103.495 27.8676 103.198 27.921 102.922 28.0334C102.645 28.1459 102.395 28.315 102.188 28.5299C101.768 28.9647 101.557 29.5373 101.557 30.248C101.557 30.9587 101.768 31.5314 102.188 31.9661C102.395 32.181 102.645 32.3501 102.922 32.4626C103.198 32.5751 103.495 32.6284 103.793 32.6191C104.093 32.6293 104.392 32.5768 104.671 32.4649C104.95 32.353 105.203 32.1841 105.413 31.9691L105.41 31.9661Z" fill="white"/>
<path d="M113.915 26.3738V28.0638C113.779 28.0372 113.642 28.0231 113.504 28.0216C112.814 28.0216 112.275 28.2225 111.888 28.6244C111.501 29.0263 111.307 29.606 111.306 30.3636V34.0438H109.534V26.4602H111.221V27.5654C111.732 26.771 112.63 26.3738 113.915 26.3738Z" fill="white"/>
<path d="M122.435 30.8187H116.496C116.583 31.3512 116.875 31.8282 117.31 32.1469C117.749 32.4738 118.295 32.6372 118.948 32.6372C119.779 32.6372 120.464 32.3626 121.003 31.8134L121.953 32.9065C121.607 33.3178 121.163 33.6353 120.663 33.8298C120.024 34.064 119.346 34.1682 118.667 34.1364C117.987 34.1047 117.321 33.9376 116.707 33.645C116.096 33.3342 115.587 32.8535 115.241 32.2605C114.891 31.6496 114.712 30.9553 114.723 30.251C114.713 29.5534 114.886 28.8652 115.225 28.2557C115.552 27.6724 116.036 27.1928 116.622 26.8712C117.239 26.5341 117.932 26.3627 118.635 26.3738C119.325 26.3622 120.007 26.5312 120.612 26.8641C121.187 27.1843 121.659 27.6621 121.973 28.2416C122.308 28.8723 122.477 29.5787 122.462 30.2932C122.463 30.4168 122.454 30.5916 122.435 30.8187ZM117.197 28.2989C116.8 28.6418 116.545 29.1197 116.481 29.6402H120.776C120.719 29.1184 120.466 28.6377 120.069 28.2952C119.672 27.9527 119.16 27.7738 118.636 27.7945C118.111 27.7795 117.598 27.959 117.197 28.2989Z" fill="white"/>
</svg>
