<svg width="64" height="44" viewBox="0 0 64 44" fill="none" xmlns="http://www.w3.org/2000/svg">
<g clip-path="url(#clip0_53_646)">
<path d="M30.9257 43.9956C30.3532 43.789 29.7678 43.6204 29.2166 43.3675C28.2475 42.953 27.4068 42.2928 26.7802 41.4539C26.1535 40.6151 25.7632 39.6274 25.6489 38.5915C25.5224 37.725 25.6424 36.8409 25.9955 36.0378C26.3486 35.2347 26.9209 34.5441 27.6485 34.0431C29.0018 33.0446 30.6301 32.4744 32.3186 32.4075C35.0318 32.2305 37.0956 33.3012 38.3518 35.6365C39.749 38.2416 39.0098 41.4411 36.2154 42.8954C35.3206 43.2927 34.3982 43.6266 33.4552 43.8944C33.421 43.8944 33.3954 43.9661 33.3697 43.9998L30.9257 43.9956Z" fill="white"/>
<path d="M0 20.6864C0.11229 20.2695 0.202972 19.8192 0.336856 19.3981C0.678044 18.3058 1.17904 17.3136 2.32354 16.8008C3.64942 16.1838 4.81117 16.5173 5.49787 17.7889C5.93504 18.6566 6.20852 19.5926 6.30549 20.5529C6.50383 22.0398 6.38927 23.5499 5.96863 24.993C5.72246 25.8601 5.36832 26.7231 4.48728 27.1525C2.88067 27.9363 1.55477 27.3818 0.798974 25.6141C0.503149 24.7497 0.276461 23.8647 0.120914 22.9668C0.0910651 22.8998 0.0502472 22.8379 0 22.7834V20.6864Z" fill="white"/>
<path d="M31.9327 28.7108C27.8213 28.8005 24.9985 25.5619 24.9604 21.8542C24.9222 18.1465 28.0968 15.2097 32.5896 15.279C35.7897 15.3321 39.2271 18.4035 39.0321 22.36C38.8668 25.4925 35.8871 28.9473 31.9327 28.7108Z" fill="white"/>
<path d="M32.7247 0.00466136C33.4267 -0.0114907 34.1247 0.116899 34.777 0.382151C35.4293 0.647403 36.0224 1.04407 36.521 1.54844C37.5962 2.55396 38.254 3.9407 38.3595 5.4247C38.4599 6.22799 38.3729 7.0441 38.1056 7.80661C37.8383 8.56913 37.3982 9.25648 36.8212 9.81274C35.9496 10.6116 34.8798 11.1514 33.7283 11.3733C32.0755 11.8199 30.3197 11.6333 28.7927 10.8489C27.7746 10.3362 26.9289 9.52652 26.3628 8.52267C25.7968 7.51883 25.5359 6.36609 25.6133 5.21075C25.6663 4.48243 25.8785 3.77547 26.2344 3.14173C26.5902 2.508 27.0807 1.96359 27.6698 1.54844C29.1447 0.485607 30.9198 -0.0564999 32.7247 0.00466136Z" fill="white"/>
<path d="M15.5803 15.2778C16.4604 15.3221 17.3143 15.581 18.0618 16.0302C18.8093 16.4794 19.4258 17.1041 19.8536 17.8456C20.7478 19.2446 21.1861 20.8694 21.112 22.5104C21.0453 24.2865 20.5117 25.9341 19.1065 27.1923C18.1437 28.0353 16.9244 28.5575 15.6292 28.6817C12.7345 29.0369 10.4045 27.0083 9.58184 24.7144C9.21645 23.7733 9.00785 22.7824 8.96375 21.7786C8.91149 20.317 9.41061 18.8865 10.3689 17.7515C11.0016 17.0027 11.7948 16.3941 12.6941 15.9672C13.5935 15.5404 14.5779 15.3052 15.5803 15.2778Z" fill="white"/>
<path d="M55.0376 22.1505C55.0653 23.1633 54.8511 24.1692 54.4103 25.0957C53.9696 26.0222 53.3132 26.8462 52.4886 27.5085C51.6371 28.217 50.5528 28.6368 49.4121 28.6996C48.305 28.7961 47.1924 28.5792 46.2203 28.0773C45.0027 27.414 44.0645 26.3848 43.5605 25.1593C42.7887 23.5391 42.6692 21.715 43.2236 20.0197C43.6588 18.7648 44.5293 17.6794 45.6989 16.9336C46.8684 16.1878 48.271 15.8237 49.687 15.8982C50.6679 15.9888 51.5958 16.3555 52.3468 16.9492C53.6787 17.9143 54.5801 19.3028 54.878 20.8481C54.9711 21.2891 54.9889 21.7013 55.0376 22.1505Z" fill="white"/>
<path d="M17.4971 42.7557C15.7886 42.8189 14.4042 42.1149 13.1512 41.0695C12.0271 40.1582 11.1682 38.9817 10.6585 37.6551C10.1152 36.2134 9.98379 34.7802 10.9827 33.4397C11.6246 32.6295 12.5657 32.0877 13.6112 31.9264C14.5495 31.7147 15.5276 31.7294 16.4585 31.9692C17.3894 32.2089 18.2443 32.6663 18.9472 33.3006C20.424 34.4927 21.3976 36.1625 21.6853 37.9965C22.0446 40.3571 21.129 42.1866 18.4697 42.7514C18.1466 42.7852 17.8206 42.7866 17.4971 42.7557Z" fill="white"/>
<path d="M49.8407 12.2202C48.0472 12.2628 46.3085 11.6255 45.0023 10.4469C43.7849 9.47715 42.9032 8.1762 42.4738 6.71602C42.0888 5.30749 42.0844 3.92412 43.1956 2.75035C43.9546 1.95401 44.9809 1.43781 46.096 1.29152C48.0996 0.981311 49.692 1.74006 51.105 3.00187C52.3542 4.08439 53.2237 5.51052 53.5942 7.08492C53.9704 8.67789 53.7605 10.1199 52.3999 11.2476C51.6943 11.8525 50.7872 12.1972 49.8407 12.2202Z" fill="white"/>
<path d="M21.7588 5.32484C21.7911 6.98256 21.1534 8.58969 19.9753 9.81954C19.2174 10.6778 18.2436 11.3428 17.1429 11.7538C16.0422 12.1648 14.8499 12.3086 13.6751 12.1721C12.866 12.1128 12.1014 11.7984 11.5046 11.2793C10.9077 10.7602 10.5132 10.0667 10.3846 9.3103C10.1635 8.34945 10.1964 7.35203 10.4802 6.40599C10.764 5.45995 11.2901 4.59436 12.012 3.88553C13.2798 2.51331 15.0137 1.59983 16.9166 1.3015C19.5919 0.88065 21.5493 2.14321 21.7365 4.87454C21.7677 5.02183 21.7588 5.17333 21.7588 5.32484Z" fill="white"/>
<path d="M46.7915 42.7778C44.4137 42.7778 42.9192 40.9388 42.8815 38.8176C42.8271 35.9408 44.2379 33.9399 46.7161 32.6115C47.6691 32.1248 48.7145 31.842 49.7846 31.7813C50.6991 31.7424 51.597 32.0328 52.3125 32.5989C53.028 33.165 53.513 33.9686 53.6778 34.8615C53.8083 35.6123 53.7832 36.3815 53.604 37.1224C53.4248 37.8632 53.0952 38.5601 52.6354 39.1704C51.7436 40.5475 50.4519 41.6243 48.9306 42.2589C48.2313 42.4835 47.5163 42.6569 46.7915 42.7778Z" fill="white"/>
<path d="M60.925 16.5015C61.2764 16.4881 61.6251 16.5642 61.9365 16.7222C62.2479 16.8802 62.5109 17.1145 62.6993 17.4017C63.4784 18.5874 63.9134 19.9541 63.9587 21.3585C64.0691 22.5529 63.9578 23.7568 63.6298 24.9132C63.3398 25.8763 62.9071 26.7848 61.8987 27.2412C60.6005 27.8274 59.3758 27.4045 58.6184 26.1065C58.0258 24.9751 57.6835 23.7364 57.6135 22.4697C57.5434 21.203 57.7472 19.9361 58.2117 18.7499C58.3787 18.2444 58.6675 17.7845 59.0542 17.4082C59.4409 17.0318 59.9145 16.7498 60.436 16.5852C60.5969 16.5468 60.7603 16.5188 60.925 16.5015Z" fill="white"/>
<path d="M8.32003 37.638C8.27144 37.928 8.22728 38.1702 8.19636 38.4324C8.03734 39.6636 6.60615 39.9694 5.59901 39.5365C4.73603 39.113 4.00538 38.5011 3.47431 37.7572C2.36389 36.393 1.63922 34.8063 1.36285 33.1341C1.26123 32.7745 1.25301 32.3986 1.3388 32.0357C1.42459 31.6727 1.60209 31.3324 1.85758 31.041C2.46275 30.4214 3.32411 30.4453 4.12364 30.8305C5.28979 31.3905 6.02749 32.3199 6.68124 33.2969C7.34293 34.2493 7.82081 35.2954 8.09474 36.3909C8.19192 36.804 8.24494 37.2369 8.32003 37.638Z" fill="white"/>
<path d="M62.72 11.4629C62.6112 11.9551 62.4322 12.4326 62.1874 12.8834C61.6725 13.5936 60.6294 13.5857 59.7711 13.1056C58.6576 12.4313 57.7496 11.5158 57.1303 10.4431C56.3549 9.29511 55.8653 8.00897 55.6955 6.67363C55.5986 5.78879 55.9463 4.58255 57.0159 4.3286C57.39 4.25079 57.7802 4.26259 58.1478 4.36282C58.5153 4.46306 58.8473 4.64825 59.1109 4.89998C60.8469 6.34886 62.0262 8.25836 62.4779 10.3519C62.5265 10.5171 62.5604 10.6856 62.5792 10.8558C62.5792 11.0462 62.5792 11.2526 62.5792 11.4272L62.72 11.4629Z" fill="white"/>
<path d="M56.3228 37.5311C56.4249 35.1296 57.289 33.0385 59.1831 31.4048C59.5407 31.0826 59.9694 30.8418 60.4374 30.7004C60.9053 30.5589 61.4004 30.5205 61.886 30.588C62.0775 30.6166 62.3116 30.8861 62.384 31.0944C62.8169 32.2204 62.832 33.4551 62.4265 34.5905C62.0007 36.0491 61.2136 37.3872 60.1323 38.4908C59.5534 39.0871 58.8937 39.7161 57.9275 39.7161C57.7186 39.735 57.5078 39.7107 57.3096 39.6447C57.1113 39.5787 56.9302 39.4726 56.7784 39.3335C56.6267 39.1945 56.5078 39.0258 56.4299 38.8388C56.352 38.6518 56.317 38.451 56.327 38.2499C56.3143 38.0212 56.3228 37.7761 56.3228 37.5311Z" fill="white"/>
<path d="M7.67427 6.6392C7.57064 8.86726 6.83655 10.8469 5.08337 12.4028C4.6789 12.7892 4.18472 13.0816 3.6399 13.2569C3.09508 13.4322 2.51452 13.4857 1.94405 13.413C1.85737 13.3899 1.77737 13.3486 1.71006 13.2922C1.64274 13.2357 1.58986 13.1656 1.5554 13.0871C1.18824 11.9438 1.18824 10.7234 1.5554 9.58008C2.00569 7.80574 3.01422 6.20128 4.44858 4.97732C4.72324 4.72311 5.05449 4.5298 5.41825 4.41143C5.782 4.29307 6.16913 4.25262 6.55153 4.29302C7.14744 4.35412 7.62677 4.99768 7.67427 5.81233C7.68723 6.08931 7.67427 6.36629 7.67427 6.6392Z" fill="white"/>
</g>
<defs>
<clipPath id="clip0_53_646">
<rect width="64" height="44" fill="white"/>
</clipPath>
</defs>
</svg>
