<svg width="76" height="76" viewBox="0 0 76 76" fill="none" xmlns="http://www.w3.org/2000/svg">
<path d="M53.2724 66.3932C52.5702 66.3932 51.8837 66.2365 51.2474 65.9356C51.1377 65.8917 51.0311 65.8384 50.9214 65.7757L38.0473 58.4312L25.1732 65.7789C25.0635 65.8415 24.9538 65.8948 24.841 65.945C23.3112 66.6597 21.4398 66.4904 20.0731 65.4967C18.603 64.4309 17.8757 62.5721 18.2362 60.7665L21.2361 46.2154C20.0637 45.1496 18.2205 43.4725 16.2144 41.6482L10.2742 36.2409C10.1895 36.1625 10.1018 36.0747 10.0297 35.9838C8.85415 34.7425 8.43411 32.9432 8.96387 31.3069C9.50617 29.6643 10.9074 28.4481 12.6001 28.144C12.7067 28.1189 12.8101 28.1001 12.9198 28.0876L27.6559 26.4544L33.756 12.944C33.8092 12.8249 33.8688 12.7089 33.944 12.5992C34.7653 11.1165 36.3389 10.1824 38.0473 10.1824C39.7494 10.1824 41.3199 11.1165 42.1506 12.5961C42.2164 12.7089 42.2791 12.8249 42.3387 12.9472L48.445 26.4638L63.1811 28.097C63.2877 28.1064 63.3943 28.1252 63.5071 28.1503C65.1967 28.4638 66.5979 29.6737 67.137 31.3226C67.6699 32.9557 67.2468 34.7644 66.0713 36.0058C65.996 36.0873 65.9114 36.175 65.8268 36.2503L54.8617 46.2311L57.8616 60.7508C58.2158 62.5909 57.4917 64.4435 56.0121 65.5124C55.2222 66.0829 54.2692 66.3932 53.2724 66.3932ZM27.728 45.8173C27.6057 46.3878 26.2672 52.8577 25.0792 58.613L36.4988 52.1023C37.4611 51.5537 38.6429 51.5537 39.6021 52.1023L51.0217 58.6067L48.3604 45.7421C48.1378 44.6575 48.5014 43.5321 49.3259 42.7892L59.0433 33.9432L45.978 32.4981C44.8778 32.3758 43.928 31.6831 43.4672 30.6674L38.0505 18.6899L32.64 30.6674C32.1824 31.6768 31.2294 32.3696 30.1291 32.4981L17.0639 33.9432L26.7813 42.7892C27.634 43.5603 27.985 44.7233 27.728 45.8173Z" fill="url(#paint0_linear_39_401)"/>
<defs>
<linearGradient id="paint0_linear_39_401" x1="38.0511" y1="10.1824" x2="38.0511" y2="66.3932" gradientUnits="userSpaceOnUse">
<stop stop-color="#2F75FD"/>
<stop offset="1" stop-color="#06EF79"/>
</linearGradient>
</defs>
</svg>
