<svg width="70" height="70" viewBox="0 0 70 70" fill="none" xmlns="http://www.w3.org/2000/svg">
<path d="M50.3877 28.2384H24.8309V21.4233C24.8363 19.6175 25.556 17.8872 26.833 16.6102C28.1099 15.3333 29.8402 14.6136 31.646 14.6082H39.3131C40.8886 14.6276 42.3941 15.2621 43.5082 16.3763C44.6223 17.4904 45.2569 18.9959 45.2763 20.5714C45.2763 21.4752 45.6353 22.3419 46.2744 22.9809C46.9134 23.62 47.7801 23.979 48.6839 23.979C49.5876 23.979 50.4543 23.62 51.0934 22.9809C51.7324 22.3419 52.0914 21.4752 52.0914 20.5714C52.0674 17.1898 50.7133 13.9536 48.3221 11.5624C45.9309 9.17114 42.6947 7.81712 39.3131 7.79303H31.646C28.0344 7.80382 24.5737 9.24332 22.0199 11.7972C19.466 14.351 18.0265 17.8116 18.0157 21.4233V28.4088C15.6407 28.8157 13.4849 30.0464 11.927 31.8848C10.3691 33.7231 9.50868 36.0515 9.49683 38.4612V52.0914C9.50492 54.8002 10.5845 57.3957 12.4999 59.311C14.4153 61.2264 17.0108 62.306 19.7195 62.3141H50.3877C53.0964 62.306 55.6919 61.2264 57.6073 59.311C59.5226 57.3957 60.6023 54.8002 60.6104 52.0914V38.4612C60.6023 35.7524 59.5226 33.1569 57.6073 31.2415C55.6919 29.3262 53.0964 28.2465 50.3877 28.2384ZM53.7952 52.0914C53.7952 52.9952 53.4362 53.8619 52.7972 54.5009C52.1581 55.14 51.2914 55.499 50.3877 55.499H19.7195C18.8158 55.499 17.9491 55.14 17.31 54.5009C16.671 53.8619 16.312 52.9952 16.312 52.0914V38.4612C16.312 37.5574 16.671 36.6907 17.31 36.0516C17.9491 35.4126 18.8158 35.0536 19.7195 35.0536H50.3877C51.2914 35.0536 52.1581 35.4126 52.7972 36.0516C53.4362 36.6907 53.7952 37.5574 53.7952 38.4612V52.0914Z" fill="url(#paint0_linear_39_398)"/>
<defs>
<linearGradient id="paint0_linear_39_398" x1="35.0536" y1="7.79303" x2="35.0536" y2="62.3141" gradientUnits="userSpaceOnUse">
<stop stop-color="#2F75FD"/>
<stop offset="1" stop-color="#06EF79"/>
</linearGradient>
</defs>
</svg>
