<svg width="37" height="37" viewBox="0 0 37 37" fill="none" xmlns="http://www.w3.org/2000/svg">
<path d="M14.955 3.14257C16.4096 0.211679 20.5904 0.211679 22.045 3.14257C22.9246 4.91469 24.9776 5.76509 26.8526 5.13394C29.9537 4.0901 32.9099 7.04631 31.8661 10.1474C31.2349 12.0224 32.0853 14.0754 33.8574 14.955C36.7883 16.4096 36.7883 20.5904 33.8574 22.045C32.0853 22.9246 31.2349 24.9776 31.8661 26.8526C32.9099 29.9537 29.9537 32.9099 26.8526 31.8661C24.9776 31.2349 22.9246 32.0853 22.045 33.8574C20.5904 36.7883 16.4096 36.7883 14.955 33.8574C14.0754 32.0853 12.0224 31.2349 10.1474 31.8661C7.04631 32.9099 4.0901 29.9537 5.13394 26.8526C5.76509 24.9776 4.91469 22.9246 3.14257 22.045C0.211679 20.5904 0.211679 16.4096 3.14257 14.955C4.91469 14.0754 5.76509 12.0224 5.13394 10.1474C4.0901 7.04631 7.04631 4.0901 10.1474 5.13394C12.0224 5.76509 14.0754 4.91469 14.955 3.14257Z" fill="#06EF79"/>
</svg>
