<svg width="67" height="67" viewBox="0 0 67 67" fill="none" xmlns="http://www.w3.org/2000/svg">
<path d="M33.3873 5.93506C18.1749 5.93506 5.72845 18.3815 5.72845 33.5939C5.72845 48.8063 18.1749 61.2527 33.3873 61.2527C48.5997 61.2527 61.0461 48.8063 61.0461 33.5939C61.0461 18.3815 48.5997 5.93506 33.3873 5.93506ZM33.3873 11.4668C38.3659 11.4668 43.0679 13.1264 46.9401 16.1688L41.1318 21.9772C40.0254 21.1474 38.6425 20.5942 36.9829 20.0411C34.7702 19.4879 32.2809 19.4879 29.7916 20.0411C28.4087 20.3177 27.0258 21.1474 25.6428 21.9772L19.8345 16.1688C23.7067 13.1264 28.4087 11.4668 33.3873 11.4668ZM41.4084 35.8066C41.1318 37.1895 40.302 38.5725 39.1957 39.4023C38.0893 40.232 36.9829 41.0618 35.3234 41.615C33.9405 41.8915 32.5575 41.8915 31.1746 41.615C29.7916 41.3384 28.4087 40.5086 27.5789 39.4023C26.4726 38.2959 25.9194 37.1895 25.3662 35.8066C25.0896 34.4237 25.0896 33.0407 25.3662 31.6578C25.6428 30.2748 26.4726 28.8919 27.5789 28.0621C28.6853 27.2324 29.7916 26.4026 31.4512 25.8494C32.0044 25.2962 32.5575 25.2962 33.3873 25.2962C34.2171 25.2962 34.7702 25.2962 35.6 25.5728C36.9829 25.8494 38.3659 26.6792 39.1957 27.7855C40.302 28.8919 40.8552 29.9982 41.4084 31.3812C41.6849 32.7641 41.6849 34.4237 41.4084 35.8066ZM11.2602 33.5939C11.2602 28.6153 12.9198 23.9133 15.9622 20.0411L21.7706 25.8494C20.9408 26.9558 20.3876 28.3387 19.8345 29.9982C19.2813 32.211 19.2813 34.7003 19.8345 37.1895C20.1111 38.5725 20.9408 39.9554 21.7706 41.3384L15.9622 47.1467C12.9198 43.2745 11.2602 38.5725 11.2602 33.5939ZM33.3873 55.721C28.4087 55.721 23.7067 54.0614 19.8345 51.019L25.6428 45.2106C26.7492 46.0404 28.1321 46.5936 29.7916 47.1467C30.898 47.4233 32.2809 47.6999 33.3873 47.6999C34.4936 47.6999 35.8766 47.4233 36.9829 47.1467C38.3659 46.8701 39.7488 46.0404 41.1318 45.2106L46.9401 51.019C43.0679 54.0614 38.3659 55.721 33.3873 55.721ZM50.8124 47.1467L45.004 41.3384C45.8338 40.232 46.3869 38.8491 46.9401 37.1895C47.4933 34.9768 47.4933 32.4875 46.9401 29.9982C46.6635 28.6153 45.8338 27.2324 45.004 25.8494L50.8124 20.0411C53.8548 23.9133 55.5144 28.6153 55.5144 33.5939C55.5144 38.5725 53.8548 43.2745 50.8124 47.1467Z" fill="url(#paint0_linear_39_409)"/>
<defs>
<linearGradient id="paint0_linear_39_409" x1="33.3873" y1="5.93506" x2="33.3873" y2="61.2527" gradientUnits="userSpaceOnUse">
<stop stop-color="#2F75FD"/>
<stop offset="1" stop-color="#06EF79"/>
</linearGradient>
</defs>
</svg>
