<svg width="77" height="76" viewBox="0 0 77 76" fill="none" xmlns="http://www.w3.org/2000/svg">
<circle cx="38.4703" cy="38.1188" r="37.2131" fill="url(#paint0_linear_148_783)" stroke="#9747FF"/>
<path d="M36.8232 41.2194L42.2182 37.6861C42.4132 37.5528 42.5596 37.3861 42.6576 37.1861C42.7555 36.9861 42.804 36.775 42.8032 36.5528C42.8032 36.3306 42.7546 36.1194 42.6576 35.9194C42.5605 35.7194 42.414 35.5528 42.2182 35.4194L36.8232 31.8861C36.3898 31.5972 35.9457 31.575 35.4907 31.8194C35.0357 32.0639 34.8082 32.4528 34.8082 32.9861V40.1194C34.8082 40.6528 35.0357 41.0417 35.4907 41.2861C35.9457 41.5306 36.3898 41.5083 36.8232 41.2194ZM34.1582 49.8861C33.7898 49.8861 33.4809 49.7581 33.2313 49.5021C32.9817 49.2461 32.8573 48.9297 32.8582 48.5528V47.2194H27.6582C26.9432 47.2194 26.3309 46.9581 25.8213 46.4354C25.3117 45.9128 25.0573 45.2852 25.0582 44.5528V28.5528C25.0582 27.8194 25.313 27.1914 25.8226 26.6688C26.3322 26.1461 26.944 25.8852 27.6582 25.8861H48.4582C49.1732 25.8861 49.7855 26.1474 50.2951 26.6701C50.8047 27.1928 51.059 27.8203 51.0582 28.5528V44.5528C51.0582 45.2861 50.8034 45.9141 50.2938 46.4368C49.7842 46.9594 49.1723 47.2203 48.4582 47.2194H43.2582V48.5528C43.2582 48.9305 43.1334 49.2474 42.8838 49.5034C42.6342 49.7594 42.3256 49.887 41.9582 49.8861H34.1582Z" fill="white"/>
<defs>
<linearGradient id="paint0_linear_148_783" x1="38.4703" y1="0.40564" x2="38.4703" y2="75.8319" gradientUnits="userSpaceOnUse">
<stop stop-color="#9747FF"/>
<stop offset="1" stop-color="#7A20F0"/>
</linearGradient>
</defs>
</svg>
